<?xml version="1.0" ?>
<svg 
height="64" id="svg8" version="1.1" 
viewBox="0 0 16.933333 16.933333" width="64" 
xmlns="http://www.w3.org/2000/svg" xmlns:cc="http://creativecommons.org/ns#" 
xmlns:dc="http://purl.org/dc/elements/1.1/" 
xmlns:inkscape="http://www.inkscape.org/namespaces/inkscape" 
xmlns:rdf="http://www.w3.org/1999/02/22-rdf-syntax-ns#" 
xmlns:sodipodi="http://sodipodi.sourceforge.net/DTD/sodipodi-0.dtd" 
xmlns:svg="http://www.w3.org/2000/svg">
<defs id="defs2"/>
<rect width="100%" height="100%" fill="white" rx="4"/>
<g id="layer2">
<path d="M 7.9375001,1.058349 C 7.71655,1.058349 7.51893,1.165145 7.3943801,1.306396 7.2698299,1.447647 7.201085,1.614725 7.154085,1.779235 L 6.8383421,2.88201 C 6.4415621,2.999756 6.037982,3.166268 5.672522,3.368286 L 4.665865,2.81018 C 4.5163051,2.72709 4.3499589,2.658178 4.1620201,2.646366 c -0.1879413,-0.01181 -0.40446,0.051 -0.56069,0.207222 l -0.747758,0.749826 c -0.15518,0.1561059 -0.219002,0.37126 -0.207222,0.5586221 0.0118,0.1879369 0.0807,0.354294 0.163814,0.5038449 l 0.558106,1.00769 c -0.19724,0.3627699 -0.367984,0.762358 -0.480074,1.1637539 L 1.779219,7.154101 c -0.16451,0.047 -0.3315889,0.1157459 -0.4728389,0.2402959 -0.14125,0.124547 -0.248047,0.322167 -0.248047,0.5431189 v 1.0583331 c 0,0.220953 0.106797,0.418571 0.248047,0.5431192 0.14125,0.1245478 0.3083289,0.1932929 0.4728389,0.2402959 l 1.1069091,0.31626 c 0.1160599,0.402317 0.2861089,0.799785 0.4842089,1.161169 l -0.5601729,1.010791 c -0.0831,0.149553 -0.152004,0.315907 -0.163814,0.503845 -0.0118,0.187938 0.051,0.402398 0.207222,0.558622 L 3.60133,14.078226 c 0.15623,0.156224 0.3727488,0.220585 0.5606901,0.208773 0.1879388,-0.01181 0.354285,-0.08073 0.5038449,-0.163814 l 1.008724,-0.559139 c 0.3618899,0.196758 0.7675088,0.370133 1.1627191,0.480074 l 0.3167769,1.11001 c 0.047,0.164511 0.1157449,0.331588 0.2402951,0.472839 0.1245499,0.141252 0.3221699,0.248047 0.54312,0.248047 h 1.0583327 c 0.2209602,-1e-6 0.4185791,-0.106795 0.5431192,-0.248047 0.12455,-0.141251 0.1932959,-0.308329 0.2402959,-0.472839 l 0.3157431,-1.105876 c 0.40598,-0.116212 0.804203,-0.287583 1.165303,-0.485242 l 1.007174,0.560173 c 0.14955,0.08309 0.315915,0.152003 0.503845,0.163814 0.18794,0.01181 0.402393,-0.05255 0.558622,-0.208773 l 0.748275,-0.748275 c 0.15623,-0.156226 0.220593,-0.370684 0.208773,-0.558622 -0.0118,-0.187938 -0.0807,-0.354293 -0.163815,-0.503845 l -0.558105,-1.00769 c 0.1976,-0.362916 0.364629,-0.767292 0.481108,-1.163754 l 1.107942,-0.316776 c 0.164511,-0.047 0.33159,-0.1157481 0.47284,-0.2402959 C 15.768213,9.4144189 15.875,9.2168019 15.875,8.9958489 V 7.9375158 c 0,-0.2209519 -0.106798,-0.4185719 -0.248047,-0.5431189 -0.14125,-0.12455 -0.308329,-0.1932919 -0.47284,-0.2402959 L 14.049788,6.8378408 C 13.934998,6.423102 13.764213,6.0357999 13.565063,5.6725381 L 14.123168,4.665881 c 0.0831,-0.149552 0.152005,-0.3159072 0.163815,-0.5038449 0.0118,-0.1873642 -0.0536,-0.4025162 -0.208773,-0.5586221 v -0.0021 L 13.329935,2.853556 C 13.173706,2.697332 12.959253,2.634522 12.771313,2.646334 c -0.18793,0.01181 -0.354295,0.08125 -0.503845,0.164331 L 11.261844,3.36722 C 10.899684,3.170466 10.490481,3.001632 10.094991,2.885596 L 9.779248,1.779203 C 9.732248,1.614693 9.6635021,1.447615 9.538952,1.306364 9.414412,1.165113 9.2167931,1.058317 8.9958328,1.058317 Z M 8.464599,4.232316 c 6.88e-4,0 0.0014,-1e-6 0.00209,0 6.88e-4,-1e-6 0.0014,0 0.00209,0 2.3348729,0 4.2322999,1.899494 4.2322999,4.2343659 0,2.3748421 -1.939748,4.2323001 -4.2323,4.2323001 h -0.00209 c -6.879e-4,10e-7 -0.0014,0 -0.00209,0 -2.292551,0 -4.232299,-1.857457 -4.232299,-4.2323001 0,-2.3348719 1.8974271,-4.2343659 4.232299,-4.2343659 z m 0,0.5291659 c -2.0488891,1e-6 -3.7031331,1.6680039 -3.7031331,3.7052 0,0.5833841 0.1344721,1.1276719 0.373621,1.6241911 C 5.4103999,9.3412928 6.170312,8.7312661 7.290511,8.7312661 h 2.352311 c 1.120198,0 1.88015,0.6100267 2.155424,1.3596069 0.239149,-0.4965181 0.37362,-1.040807 0.37362,-1.6241911 0,-2.0371961 -1.654243,-3.705199 -3.7031331,-3.7052 -6.879e-4,0 -0.0014,0 -0.00209,0 -6.88e-4,0 -0.0014,0 -0.00209,0 z m 0.00209,0.5296842 c 0.8005559,0 1.4552085,0.6541349 1.4552085,1.4546907 0,0.8005562 -0.6546526,1.4552091 -1.4552085,1.4552091 -0.8005551,0 -1.455208,-0.6546529 -1.455208,-1.4552091 0,-0.8005558 0.6546529,-1.4546907 1.455208,-1.4546907 z m 0,0.5291658 c -0.514572,0 -0.9260411,0.410953 -0.9260411,0.9255249 0,0.5145731 0.4114691,0.9281091 0.9260411,0.9281091 0.5145731,0 0.9260419,-0.413536 0.9260419,-0.9281091 0,-0.5145719 -0.4114689,-0.9255249 -0.9260419,-0.9255249 z m -1.1761454,3.4401 c -0.3413649,0 -0.616476,0.06358 -0.8557619,0.1757 0.2068009,0.2300179 0.372369,0.5471459 0.4211632,0.8821171 h 1.345137 V 10.159602 L 7.4708939,9.2604319 Z m 0.8671301,0 0.3090251,0.3844729 0.3090249,-0.3844729 z m 1.3048301,0 -0.7301877,0.8991701 v 0.158647 h 1.3451379 c 0.04879,-0.3349712 0.214361,-0.6520992 0.421163,-0.8821171 -0.239287,-0.1121259 -0.5143984,-0.1757 -0.8557619,-0.1757 z m -3.47679,0.4759399 C 5.7012209,10.015041 5.5562829,10.368769 5.5562829,10.685668 v 0.07183 c 0.2261449,0.286951 0.4928672,0.539663 0.793233,0.748791 v -0.904854 c 0,-0.344794 -0.1439831,-0.654308 -0.3638021,-0.8650632 z m 4.9619712,0 c -0.219819,0.2107563 -0.363802,0.5202702 -0.363802,0.8650642 v 0.904854 c 0.300365,-0.209128 0.567087,-0.46184 0.793233,-0.748791 v -0.07183 c 0,-0.316898 -0.144938,-0.670628 -0.429431,-0.9492972 z M 6.8786828,10.847932 v 0.962732 c 0.40577,0.19236 0.8511633,0.317792 1.3223991,0.350883 v -1.313615 z m 1.8536333,0 v 1.313615 c 0.4712348,-0.03309 0.9166288,-0.158523 1.3223999,-0.350883 v -0.962732 z" id="path1656" style="opacity:1;fill:#000000;fill-opacity:1;stroke:none;stroke-width:0.52916658;stroke-linecap:round;stroke-linejoin:round;stroke-miterlimit:4;stroke-dasharray:none;stroke-dashoffset:0;stroke-opacity:1"/>
</g>
</svg>